<?xml version="1.0" encoding="UTF-8" standalone="no"?><svg xmlns="http://www.w3.org/2000/svg" xmlns:xlink="http://www.w3.org/1999/xlink" display="inline" height="125.570000px" preserveAspectRatio="xMinYMin meet" viewBox="64.00 64.00 381.85 125.57" width="381.854000px" x="0" y="0" zoomAndPan="disable"><g fill="none" stroke="black" stroke-width="1" fill-rule="evenodd" stroke-linecap="square" stroke-linejoin="bevel"><g data-tags="diagram"><g id="supervisor:1:1515"><g clip-path="none" fill="#fff5e1" fill-opacity="1" opacity="1" stroke="#000000" stroke-linecap="butt" stroke-linejoin="miter" stroke-miterlimit="2" stroke-opacity="1" stroke-width="1" transform="matrix(1,0,0,1,0,0)"><path d="M65,65 L444.854,65 L444.854,188.57 L65,188.57 L65,65 z" fill-rule="evenodd" vector-effect="none"/></g><g data-tags="name"><defs><clipPath id="clip2"><path d="M-44.5,-0.5 L336.354,-0.5 L336.354,124.07 L-44.5,124.07 L-44.5,-0.5 z"/></clipPath></defs><g clip-path="url(#clip2)" fill="none" opacity="1" stroke="none" stroke-opacity="0" transform="matrix(1,0,0,1,109,65)"><path d="M1,1 L51,1 L51,15 L1,15 L1,1 z" fill-rule="evenodd" vector-effect="none"/></g><defs><clipPath id="clip3"><path d="M-44.5,-0.5 L336.354,-0.5 L336.354,124.07 L-44.5,124.07 L-44.5,-0.5 z"/></clipPath></defs><g clip-path="url(#clip3)" fill="none" opacity="1" stroke="#007a7e" stroke-linecap="square" stroke-linejoin="bevel" stroke-opacity="1" stroke-width="1" transform="matrix(1,0,0,1,109,65)"><text fill="#007a7e" fill-opacity="1" font-family="Arial" font-size="12" font-style="normal" font-weight="400" stroke="none" textLength="49.2969" x="1" xml:space="preserve" y="12">SetLimits</text></g><defs><clipPath id="clip4"><path d="M-44.5,-0.5 L336.354,-0.5 L336.354,124.07 L-44.5,124.07 L-44.5,-0.5 z"/></clipPath></defs><g clip-path="url(#clip4)" fill="none" opacity="1" stroke="none" stroke-opacity="0" transform="matrix(1,0,0,1,109,65)"><path d="M50,1 L71,1 L71,15 L50,15 L50,1 z" fill-rule="evenodd" vector-effect="none"/></g><defs><clipPath id="clip5"><path d="M-44.5,-0.5 L336.354,-0.5 L336.354,124.07 L-44.5,124.07 L-44.5,-0.5 z"/></clipPath></defs><g clip-path="url(#clip5)" fill="none" opacity="1" stroke="#000000" stroke-linecap="square" stroke-linejoin="bevel" stroke-opacity="1" stroke-width="1" transform="matrix(1,0,0,1,109,65)"><text fill="#000000" fill-opacity="1" font-family="Arial" font-size="12" font-style="normal" font-weight="400" stroke="none" textLength="20.6406" x="50.2969" xml:space="preserve" y="12">(ev)</text></g></g><defs><clipPath id="clip6"><path d="M-0.5,-0.5 L380.354,-0.5 L380.354,124.07 L-0.5,124.07 L-0.5,-0.5 z"/></clipPath></defs><g clip-path="url(#clip6)" fill="none" opacity="1" stroke="#0e3d74" stroke-linecap="square" stroke-linejoin="bevel" stroke-opacity="1" stroke-width="1" transform="matrix(1,0,0,1,65,65)"><text fill="#0e3d74" fill-opacity="1" font-family="Arial" font-size="12" font-style="normal" font-weight="400" stroke="none" textLength="42" x="1" xml:space="preserve" y="12">function</text></g><g data-tags="frame"><g clip-path="none" fill="none" opacity="1" stroke="#000000" stroke-linecap="butt" stroke-linejoin="miter" stroke-miterlimit="2" stroke-opacity="1" stroke-width="1" transform="matrix(1,0,0,1,0,0)"><path d="M65,65 L444.854,65 L444.854,188.57 L65,188.57 L65,65 z" fill-rule="evenodd" vector-effect="none"/></g></g><g clip-path="none" fill="none" opacity="1" stroke="#ae5400" stroke-linecap="butt" stroke-linejoin="miter" stroke-miterlimit="2" stroke-opacity="1" stroke-width="1" transform="matrix(1,0,0,1,70.0949,172.615)"><path d="M8.8246,4.4123 C8.8246,6.84915 6.84915,8.8246 4.4123,8.8246 C1.97545,8.8246 0,6.84915 0,4.4123 C0,1.97545 1.97545,0 4.4123,0 C6.84915,0 8.8246,1.97545 8.8246,4.4123 z" fill-rule="evenodd" vector-effect="none"/></g><g clip-path="none" fill="none" opacity="1" stroke="none" stroke-opacity="0" transform="matrix(1,0,0,1,70.0949,172.615)"><path d="M7.8246,4.4123 C7.8246,6.29686 6.29686,7.8246 4.4123,7.8246 C2.52774,7.8246 1,6.29686 1,4.4123 C1,2.52774 2.52774,1 4.4123,1 C6.29686,1 7.8246,2.52774 7.8246,4.4123 z" fill-rule="evenodd" vector-effect="none"/></g><g clip-path="none" fill="none" opacity="1" stroke="#ae5400" stroke-linecap="butt" stroke-linejoin="miter" stroke-miterlimit="2" stroke-opacity="1" stroke-width="1" transform="matrix(1,0,0,1,70.0949,141.356)"><path d="M8.8246,4.4123 C8.8246,6.84915 6.84915,8.8246 4.4123,8.8246 C1.97545,8.8246 0,6.84915 0,4.4123 C0,1.97545 1.97545,0 4.4123,0 C6.84915,0 8.8246,1.97545 8.8246,4.4123 z" fill-rule="evenodd" vector-effect="none"/></g><g clip-path="none" fill="none" opacity="1" stroke="none" stroke-opacity="0" transform="matrix(1,0,0,1,70.0949,141.356)"><path d="M7.8246,4.4123 C7.8246,6.29686 6.29686,7.8246 4.4123,7.8246 C2.52774,7.8246 1,6.29686 1,4.4123 C1,2.52774 2.52774,1 4.4123,1 C6.29686,1 7.8246,2.52774 7.8246,4.4123 z" fill-rule="evenodd" vector-effect="none"/></g><g data-tags="line defaultTransition"><g id="supervisor:1:1518"><g clip-path="none" fill="none" opacity="1" stroke="#4a549a" stroke-linecap="butt" stroke-linejoin="miter" stroke-miterlimit="2" stroke-opacity="1" stroke-width="1" transform="matrix(1,0,0,1,0,0)"><path d="M74.5072,91.6633 C74.5072,91.6633 74.5072,92.9605 74.5072,93.6123 C74.5072,94.2642 74.5072,94.9187 74.5072,95.5741 C74.5072,96.2295 74.5072,96.887 74.5072,97.5448 C74.5072,98.2026 74.5072,98.8618 74.5072,99.5209 C74.5072,100.18 74.5072,100.84 74.5072,101.499 C74.5072,102.159 74.5072,102.819 74.5072,103.478 C74.5072,104.137 74.5072,104.795 74.5072,105.453 C74.5072,106.111 74.5072,106.768 74.5072,107.424 C74.5072,108.08 74.5072,108.735 74.5072,109.389 C74.5072,110.043 74.5072,110.696 74.5072,111.347 C74.5072,111.998 74.5072,112.648 74.5072,113.296 C74.5072,113.945 74.5072,114.592 74.5072,115.238 C74.5072,115.883 74.5072,116.528 74.5072,117.171 C74.5072,117.814 74.5072,118.455 74.5072,119.096 C74.5072,119.736 74.5072,120.375 74.5072,121.013 C74.5072,121.651 74.5072,122.288 74.5072,122.925 C74.5072,123.561 74.5072,124.197 74.5072,124.832 C74.5072,125.467 74.5072,126.102 74.5072,126.736 C74.5072,127.371 74.5072,128.005 74.5072,128.64 C74.5072,129.276 74.5072,129.911 74.5072,130.547 C74.5072,131.183 74.5072,131.82 74.5072,132.459 C74.5072,133.098 74.5072,133.737 74.5072,134.38 C74.5072,135.022 74.5072,136.313 74.5072,136.313" fill-rule="evenodd" vector-effect="none"/></g><defs><clipPath id="clip8"><path d="M-19.461,-29.098 L361.393,-29.098 L361.393,95.472 L-19.461,95.472 L-19.461,-29.098 z"/></clipPath></defs><g clip-path="url(#clip8)" fill="none" opacity="1" stroke="none" stroke-opacity="0" transform="matrix(1,0,0,1,83.961,93.598)"><path d="M1,1 L292,1 L292,10 L1,10 L1,1 z" fill-rule="evenodd" vector-effect="none"/></g><defs><clipPath id="clip9"><path d="M-19.461,-29.098 L361.393,-29.098 L361.393,95.472 L-19.461,95.472 L-19.461,-29.098 z"/></clipPath></defs><g clip-path="url(#clip9)" fill="none" opacity="1" stroke="#4a549a" stroke-linecap="square" stroke-linejoin="bevel" stroke-opacity="1" stroke-width="1" transform="matrix(1,0,0,1,83.961,93.598)"><text fill="#4a549a" fill-opacity="1" font-family="Arial" font-size="7" font-style="normal" font-weight="400" stroke="none" textLength="290.313" x="1" xml:space="preserve" y="8">{ConfigurationParameters.thresholds.motorNominalCurrents = abs(ev.limits_content.nominal);</text></g><defs><clipPath id="clip10"><path d="M-19.461,-29.098 L361.393,-29.098 L361.393,95.472 L-19.461,95.472 L-19.461,-29.098 z"/></clipPath></defs><g clip-path="url(#clip10)" fill="none" opacity="1" stroke="none" stroke-opacity="0" transform="matrix(1,0,0,1,83.961,93.598)"><path d="M1,10 L270,10 L270,19 L1,19 L1,10 z" fill-rule="evenodd" vector-effect="none"/></g><defs><clipPath id="clip11"><path d="M-19.461,-29.098 L361.393,-29.098 L361.393,95.472 L-19.461,95.472 L-19.461,-29.098 z"/></clipPath></defs><g clip-path="url(#clip11)" fill="none" opacity="1" stroke="#4a549a" stroke-linecap="square" stroke-linejoin="bevel" stroke-opacity="1" stroke-width="1" transform="matrix(1,0,0,1,83.961,93.598)"><text fill="#4a549a" fill-opacity="1" font-family="Arial" font-size="7" font-style="normal" font-weight="400" stroke="none" textLength="268.969" x="1" xml:space="preserve" y="17">ConfigurationParameters.thresholds.motorPeakCurrents = abs(ev.limits_content.peak);</text></g><defs><clipPath id="clip12"><path d="M-19.461,-29.098 L361.393,-29.098 L361.393,95.472 L-19.461,95.472 L-19.461,-29.098 z"/></clipPath></defs><g clip-path="url(#clip12)" fill="none" opacity="1" stroke="none" stroke-opacity="0" transform="matrix(1,0,0,1,83.961,93.598)"><path d="M1,19 L297,19 L297,28 L1,28 L1,19 z" fill-rule="evenodd" vector-effect="none"/></g><defs><clipPath id="clip13"><path d="M-19.461,-29.098 L361.393,-29.098 L361.393,95.472 L-19.461,95.472 L-19.461,-29.098 z"/></clipPath></defs><g clip-path="url(#clip13)" fill="none" opacity="1" stroke="#4a549a" stroke-linecap="square" stroke-linejoin="bevel" stroke-opacity="1" stroke-width="1" transform="matrix(1,0,0,1,83.961,93.598)"><text fill="#4a549a" fill-opacity="1" font-family="Arial" font-size="7" font-style="normal" font-weight="400" stroke="none" textLength="295.391" x="1" xml:space="preserve" y="26">ConfigurationParameters.thresholds.motorOverloadCurrents = abs(ev.limits_content.overload);}</text></g><g clip-path="none" fill="none" opacity="1" stroke="#4a549a" stroke-linecap="butt" stroke-linejoin="miter" stroke-miterlimit="2" stroke-opacity="1" stroke-width="1" transform="matrix(-1,1.22465e-16,-1.22465e-16,-1,74.5072,136.313)"><path d="M-1.26075,0 L1.26075,0 L0,-5.043 L-1.26075,0 z" fill-rule="nonzero" vector-effect="none"/></g><g clip-path="none" fill="#4a549a" fill-opacity="1" opacity="1" stroke="none" stroke-opacity="0" transform="matrix(6.12323e-17,-1,1,6.12323e-17,74.5072,91.6633)"><path d="M6,0 C6,3.31371 3.31371,6 0,6 C-3.31371,6 -6,3.31371 -6,0 C-6,-3.31371 -3.31371,-6 0,-6 C3.31371,-6 6,-3.31371 6,0 z" fill-rule="evenodd" vector-effect="none"/></g></g></g><g data-tags="line"><g id="supervisor:1:1519"><g clip-path="none" fill="none" opacity="1" stroke="#4a549a" stroke-linecap="butt" stroke-linejoin="miter" stroke-miterlimit="2" stroke-opacity="1" stroke-width="1" transform="matrix(1,0,0,1,0,0)"><path d="M74.5072,150.181 C74.5072,150.181 74.5072,150.703 74.5072,150.982 C74.5072,151.261 74.5072,151.556 74.5072,151.857 C74.5072,152.157 74.5072,152.469 74.5072,152.783 C74.5072,153.097 74.5072,153.419 74.5072,153.741 C74.5072,154.062 74.5072,154.389 74.5072,154.712 C74.5072,155.036 74.5072,155.362 74.5072,155.682 C74.5072,156.003 74.5072,156.323 74.5072,156.637 C74.5072,156.951 74.5072,157.261 74.5072,157.565 C74.5072,157.869 74.5072,158.167 74.5072,158.458 C74.5072,158.749 74.5072,159.033 74.5072,159.309 C74.5072,159.585 74.5072,159.854 74.5072,160.114 C74.5072,160.374 74.5072,160.626 74.5072,160.87 C74.5072,161.114 74.5072,161.349 74.5072,161.577 C74.5072,161.806 74.5072,162.025 74.5072,162.239 C74.5072,162.452 74.5072,162.657 74.5072,162.858 C74.5072,163.059 74.5072,163.252 74.5072,163.442 C74.5072,163.632 74.5072,163.816 74.5072,164 C74.5072,164.183 74.5072,164.362 74.5072,164.542 C74.5072,164.723 74.5072,164.901 74.5072,165.083 C74.5072,165.266 74.5072,165.447 74.5072,165.637 C74.5072,165.827 74.5072,166.019 74.5072,166.223 C74.5072,166.427 74.5072,166.636 74.5072,166.861 C74.5072,167.086 74.5072,167.572 74.5072,167.572" fill-rule="evenodd" vector-effect="none"/></g><defs><clipPath id="clip15"><path d="M-22.65,-77.186 L358.204,-77.186 L358.204,47.384 L-22.65,47.384 L-22.65,-77.186 z"/></clipPath></defs><g clip-path="url(#clip15)" fill="none" opacity="1" stroke="none" stroke-opacity="0" transform="matrix(1,0,0,1,87.15,141.686)"><path d="M1,1 L71,1 L71,10 L1,10 L1,1 z" fill-rule="evenodd" vector-effect="none"/></g><defs><clipPath id="clip16"><path d="M-22.65,-77.186 L358.204,-77.186 L358.204,47.384 L-22.65,47.384 L-22.65,-77.186 z"/></clipPath></defs><g clip-path="url(#clip16)" fill="none" opacity="1" stroke="#4a549a" stroke-linecap="square" stroke-linejoin="bevel" stroke-opacity="1" stroke-width="1" transform="matrix(1,0,0,1,87.15,141.686)"><text fill="#4a549a" fill-opacity="1" font-family="Arial" font-size="7" font-style="normal" font-weight="400" stroke="none" textLength="69.5156" x="1" xml:space="preserve" y="8">[areLimitsSet == false]</text></g><defs><clipPath id="clip17"><path d="M-22.65,-77.186 L358.204,-77.186 L358.204,47.384 L-22.65,47.384 L-22.65,-77.186 z"/></clipPath></defs><g clip-path="url(#clip17)" fill="none" opacity="1" stroke="none" stroke-opacity="0" transform="matrix(1,0,0,1,87.15,141.686)"><path d="M1,10 L65,10 L65,19 L1,19 L1,10 z" fill-rule="evenodd" vector-effect="none"/></g><defs><clipPath id="clip18"><path d="M-22.65,-77.186 L358.204,-77.186 L358.204,47.384 L-22.65,47.384 L-22.65,-77.186 z"/></clipPath></defs><g clip-path="url(#clip18)" fill="none" opacity="1" stroke="#4a549a" stroke-linecap="square" stroke-linejoin="bevel" stroke-opacity="1" stroke-width="1" transform="matrix(1,0,0,1,87.15,141.686)"><text fill="#4a549a" fill-opacity="1" font-family="Arial" font-size="7" font-style="normal" font-weight="400" stroke="none" textLength="63.1094" x="1" xml:space="preserve" y="17">{areLimitsSet = true;</text></g><defs><clipPath id="clip19"><path d="M-22.65,-77.186 L358.204,-77.186 L358.204,47.384 L-22.65,47.384 L-22.65,-77.186 z"/></clipPath></defs><g clip-path="url(#clip19)" fill="none" opacity="1" stroke="none" stroke-opacity="0" transform="matrix(1,0,0,1,87.15,141.686)"><path d="M1,19 L17,19 L17,28 L1,28 L1,19 z" fill-rule="evenodd" vector-effect="none"/></g><defs><clipPath id="clip20"><path d="M-22.65,-77.186 L358.204,-77.186 L358.204,47.384 L-22.65,47.384 L-22.65,-77.186 z"/></clipPath></defs><g clip-path="url(#clip20)" fill="none" opacity="1" stroke="#0e3d74" stroke-linecap="square" stroke-linejoin="bevel" stroke-opacity="1" stroke-width="1" transform="matrix(1,0,0,1,87.15,141.686)"><text fill="#0e3d74" fill-opacity="1" font-family="Arial" font-size="7" font-style="normal" font-weight="400" stroke="none" textLength="15.1719" x="1" xml:space="preserve" y="26">send</text></g><defs><clipPath id="clip21"><path d="M-22.65,-77.186 L358.204,-77.186 L358.204,47.384 L-22.65,47.384 L-22.65,-77.186 z"/></clipPath></defs><g clip-path="url(#clip21)" fill="none" opacity="1" stroke="none" stroke-opacity="0" transform="matrix(1,0,0,1,87.15,141.686)"><path d="M16,19 L19,19 L19,28 L16,28 L16,19 z" fill-rule="evenodd" vector-effect="none"/></g><defs><clipPath id="clip22"><path d="M-22.65,-77.186 L358.204,-77.186 L358.204,47.384 L-22.65,47.384 L-22.65,-77.186 z"/></clipPath></defs><g clip-path="url(#clip22)" fill="none" opacity="1" stroke="#4a549a" stroke-linecap="square" stroke-linejoin="bevel" stroke-opacity="1" stroke-width="1" transform="matrix(1,0,0,1,87.15,141.686)"><text fill="#4a549a" fill-opacity="1" font-family="Arial" font-size="7" font-style="normal" font-weight="400" stroke="none" textLength="2.32813" x="16.1719" xml:space="preserve" y="26">(</text></g><defs><clipPath id="clip23"><path d="M-22.65,-77.186 L358.204,-77.186 L358.204,47.384 L-22.65,47.384 L-22.65,-77.186 z"/></clipPath></defs><g clip-path="url(#clip23)" fill="none" opacity="1" stroke="none" stroke-opacity="0" transform="matrix(1,0,0,1,87.15,141.686)"><path d="M18,19 L97,19 L97,28 L18,28 L18,19 z" fill-rule="evenodd" vector-effect="none"/></g><defs><clipPath id="clip24"><path d="M-22.65,-77.186 L358.204,-77.186 L358.204,47.384 L-22.65,47.384 L-22.65,-77.186 z"/></clipPath></defs><g clip-path="url(#clip24)" fill="none" opacity="1" stroke="#c67f00" stroke-linecap="square" stroke-linejoin="bevel" stroke-opacity="1" stroke-width="1" transform="matrix(1,0,0,1,87.15,141.686)"><text fill="#c67f00" fill-opacity="1" font-family="Arial" font-size="7" font-style="normal" font-weight="400" stroke="none" textLength="77.8125" x="18.5" xml:space="preserve" y="26">initialControlModeTrigger</text></g><defs><clipPath id="clip25"><path d="M-22.65,-77.186 L358.204,-77.186 L358.204,47.384 L-22.65,47.384 L-22.65,-77.186 z"/></clipPath></defs><g clip-path="url(#clip25)" fill="none" opacity="1" stroke="none" stroke-opacity="0" transform="matrix(1,0,0,1,87.15,141.686)"><path d="M96,19 L172,19 L172,28 L96,28 L96,19 z" fill-rule="evenodd" vector-effect="none"/></g><defs><clipPath id="clip26"><path d="M-22.65,-77.186 L358.204,-77.186 L358.204,47.384 L-22.65,47.384 L-22.65,-77.186 z"/></clipPath></defs><g clip-path="url(#clip26)" fill="none" opacity="1" stroke="#4a549a" stroke-linecap="square" stroke-linejoin="bevel" stroke-opacity="1" stroke-width="1" transform="matrix(1,0,0,1,87.15,141.686)"><text fill="#4a549a" fill-opacity="1" font-family="Arial" font-size="7" font-style="normal" font-weight="400" stroke="none" textLength="74.9844" x="96.3125" xml:space="preserve" y="26">, ControlModeHandler);}</text></g><g clip-path="none" fill="none" opacity="1" stroke="#4a549a" stroke-linecap="butt" stroke-linejoin="miter" stroke-miterlimit="2" stroke-opacity="1" stroke-width="1" transform="matrix(-1,1.22465e-16,-1.22465e-16,-1,74.5072,167.572)"><path d="M-1.26075,0 L1.26075,0 L0,-5.043 L-1.26075,0 z" fill-rule="nonzero" vector-effect="none"/></g><g clip-path="none" fill="none" opacity="0.01" stroke="#000000" stroke-linecap="butt" stroke-linejoin="miter" stroke-miterlimit="2" stroke-opacity="1" stroke-width="1" transform="matrix(6.12323e-17,-1,1,6.12323e-17,74.5072,150.181)"><path d="M0,0 L1,0 L1,1 L0,1 L0,0 z" fill-rule="evenodd" vector-effect="none"/></g></g></g></g></g></g><!--generated on windows @ 2024-12-09 11:43:29 W. Europe Standard Time--></svg>
